# xmcd
#
# Track frame offsets: 
#        150
#        13975
#        31077
#        49187
#        68787
#        89362
#        116007
#        134782
#        152767
#        168757
#        182112
#
# Disc length: 2701 seconds
#
# Revision: 0
# Processed by: cddbd v1.5.2PL0 Copyright (c) Steve Scherf et al.
# Submitted via: ExactAudioCopy v0.95b4
#
DISCID=930a8b0b
DTITLE=Echelon - Some Assembly Required
DYEAR=1995
DGENRE=Christian Rock
TTITLE0=What About Love
TTITLE1=See It Through
TTITLE2=Trusting You
TTITLE3=Talk With God
TTITLE4=For sure
TTITLE5=Passed Away
TTITLE6=Cherish
TTITLE7=Once Won't You World
TTITLE8=No Chorus
TTITLE9=Working Days
TTITLE10=Listening
EXTD=
EXTT0=
EXTT1=
EXTT2=
EXTT3=
EXTT4=
EXTT5=
EXTT6=
EXTT7=
EXTT8=
EXTT9=
EXTT10=
PLAYORDER=
